<?xml version="1.0" encoding="UTF-8"?>
<svg id="featured_ribbon" data-name="featured_ribbon" xmlns="http://www.w3.org/2000/svg" viewBox="0 0 128 128" fill="currentColor" role="img">
  <title>Featured World</title>
  <path d="m60.56,38.49c1.41-2.85,5.48-2.85,6.89,0l3.71,7.53c2.37,4.8,6.94,8.12,12.24,8.89l8.3,1.21c3.15.46,4.41,4.33,2.13,6.55l-6.01,5.86c-3.83,3.73-5.58,9.11-4.67,14.39l1.42,8.27c.54,3.14-2.75,5.53-5.57,4.05l-7.43-3.9c-2.32-1.22-4.94-1.87-7.56-1.87s-5.24.65-7.56,1.87l-7.43,3.91c-2.82,1.48-6.11-.91-5.57-4.05l1.42-8.27c.9-5.27-.84-10.65-4.67-14.39l-6.01-5.86c-2.28-2.22-1.02-6.09,2.13-6.55l8.3-1.21c5.3-.77,9.87-4.09,12.24-8.89l3.71-7.53Zm3.44-26.34c-2.46,0-4.92,1.28-6.19,3.85l-12.1,24.53c-.56,1.13-1.64,1.92-2.89,2.1l-27.07,3.93c-5.66.82-7.92,7.78-3.82,11.77l19.59,19.09c.9.88,1.32,2.15,1.1,3.4l-4.62,26.96c-.76,4.46,2.78,8.08,6.8,8.08,1.06,0,2.15-.25,3.21-.81l24.21-12.73c.56-.29,1.17-.44,1.79-.44s1.23.15,1.79.44l24.21,12.73c1.06.56,2.15.81,3.21.81,4.02,0,7.56-3.62,6.8-8.08l-4.62-26.96c-.21-1.25.2-2.52,1.1-3.4l19.59-19.09c4.09-3.99,1.84-10.94-3.82-11.77l-27.07-3.93c-1.25-.18-2.33-.97-2.89-2.1l-12.1-24.53c-1.27-2.56-3.73-3.85-6.19-3.85h0Z"/>
</svg>