<?xml version="1.0" encoding="UTF-8"?>
<svg id="magnifying_glass" data-name="magnifying_glass" xmlns="http://www.w3.org/2000/svg" viewBox="0 0 128 128" fill="currentColor" aria-hidden="true" role="presentation">
  <path d="m59.86,83.94l-8.73,18.41c-.89,1.86-2.09,3.56-3.57,5.04-3.46,3.46-8.07,5.37-12.96,5.37s-9.5-1.9-12.96-5.37c-3.46-3.46-5.37-8.07-5.37-12.96s1.91-9.5,5.37-12.96c1.48-1.48,3.18-2.68,5.05-3.58l21.64-10.26c2.67,6.23,6.63,11.78,11.54,16.31Z"/>
  <path d="m65.68,71.66l-.44.86.02.02-2.88,6.06c-5.15-2.73-9.51-6.76-12.63-11.65l6.72-3.19.02.02.86-.44c2.39-1.22,5.28-.76,7.18,1.14,1.9,1.9,2.36,4.79,1.14,7.18Z"/>
  <path d="m78.12,15.24c-18.28,0-33.15,14.59-33.62,32.76,0,.29,0,.58,0,.87s0,.58,0,.87c.16,6.32,2.07,12.22,5.26,17.21,3.12,4.89,7.48,8.92,12.63,11.65,4.69,2.49,10.04,3.9,15.73,3.9,18.57,0,33.62-15.06,33.62-33.63s-15.05-33.63-33.62-33.63Zm0,54.15c-11.34,0-20.53-9.19-20.53-20.52s9.19-20.53,20.53-20.53,20.52,9.19,20.52,20.53-9.19,20.52-20.52,20.52Z"/>
</svg>