<?xml version="1.0" encoding="utf-8"?>
<svg version="1.1" id="go_reso_logo" xmlns="http://www.w3.org/2000/svg" xmlns:xlink="http://www.w3.org/1999/xlink" x="0px" y="0px"
	 viewBox="0 0 1080 1080" xml:space="preserve">
<style type="text/css">
	.st0{fill:#ba64f2;}
</style>
<path fill="#ba64f2" d="M586.5,411.4l140.6-296.5c18.2-37.9,49.5-68.6,91.1-87.7c21.9-8.3,44-12.5,65.5-12.9c0.9,0,1.8,0,2.7,0
	c47.5-0.1,92.2,18.3,125.8,51.9c17,17,30.1,36.9,38.9,58.6c1.8,4.3,3.3,8.7,4.8,13.1c12,38.1,11.2,80.7-4.8,122.4
	c-19,41.4-49.8,72.8-87.6,90.9L666.8,491.7c-15.1,7.7-32.3,8.5-47.5,2.9c-8-2.9-15.5-7.6-21.8-13.9c0,0,0,0-0.1-0.1
	C579.1,462.4,574.7,434.5,586.5,411.4L586.5,411.4z"/>
<path fill="#ba64f2" d="M460,515.3c0,0.1,0,0.2-0.1,0.2c-4.2,13.2-16.2,22.2-30,22.5l-202.8,9.3c-11.8,0.5-23.6-1-35-4.5
	c-26.7-8.2-48.7-26.2-61.8-50.9c-0.3-0.6-0.6-1.1-0.9-1.7c-12.4-24.2-14.8-51.8-6.8-77.9c4.7-15.3,12.6-29.1,23.2-40.5
	c7.9-8.5,17.2-15.7,27.7-21.3c15.3-8.1,32.1-12.3,49-12.3c10.3,0,20.6,1.5,30.7,4.6c11.4,3.5,22,8.8,31.5,15.8l162.9,121.1
	c6.8,4.8,11.3,11.8,13,19.6C461.8,504.4,461.6,509.9,460,515.3L460,515.3z"/>
<path fill="#ba64f2" d="M956.4,667c-4.9,16.1-13.4,30.2-24.3,41.6c-26.5,27.7-67.2,39.8-106.3,27.8c-11.4-3.5-22-8.8-31.5-15.8
	L699,649.8l-67.5-50.2c-6.3-4.4-10.6-10.7-12.5-17.7c-1.5-5.5-1.6-11.5,0.1-17.3c0-0.2,0.1-0.4,0.2-0.6
	c4.1-13.3,16.2-22.4,30.1-22.7l47.6-2.2l155.1-7.1c11.8-0.5,23.6,1,35,4.5c26.7,8.2,48.6,26.2,61.8,50.9c0.3,0.5,0.6,1.1,0.8,1.6
	C962,613.3,964.4,640.9,956.4,667L956.4,667z"/>
<path fill="#ba64f2" d="M358.5,284.9l121.1,162.9c8,11.4,22.3,16.3,35.6,12.2c0.3-0.1,0.5-0.2,0.7-0.2c5.7-1.9,10.7-5.3,14.4-9.7
	c4.7-5.5,7.4-12.5,7.6-20.1l9.3-202.8c0.5-11.8-1-23.6-4.5-35c-8.2-26.7-26.2-48.7-50.9-61.8c-10.3-5.5-21.3-9.1-32.5-10.9
	c-15.6-2.5-31.6-1.5-47.2,3.3c-27,8.3-48.3,26.5-61,49.6c-13.2,23.9-17.1,52.9-8.5,81C346.2,264.8,351.6,275.4,358.5,284.9
	L358.5,284.9z"/>
<path fill="#ba64f2" d="M587.4,948.8c10.3,5.5,21.2,9.1,32.3,10.9c15.6,2.5,31.7,1.5,47.3-3.3c10.1-3.1,19.5-7.6,27.9-13.3
	c13.7-9.2,24.8-21.5,32.7-35.6c2.5-4.4,4.7-9.1,6.5-13.8c8-21,9.4-44.7,2.3-67.9c-3.5-11.4-8.8-22-15.8-31.5L599.5,631.4
	c-7.9-11.3-22-16.2-35.2-12.4c-0.1,0-0.3,0.1-0.4,0.1c-5.2,1.6-9.8,4.4-13.5,8.1c-5.7,5.7-9,13.5-9.2,21.9L536,763.9l-4.1,88.1
	c-0.5,11.8,1,23.6,4.5,35C544.6,913.7,562.7,935.6,587.4,948.8L587.4,948.8z"/>
<path fill="#ba64f2" d="M491.7,667.8L351.1,964.4c-18.2,37.9-49.5,68.6-91.1,87.7c-21.9,8.3-44,12.5-65.5,12.9c-0.9,0-1.8,0-2.7,0
	c-47.5,0.1-92.2-18.3-125.8-51.9c-17-17-30.1-36.9-38.9-58.5c-1.8-4.3-3.3-8.7-4.8-13.1c-12-38.1-11.2-80.7,4.8-122.5
	c19-41.4,49.8-72.8,87.6-90.9l296.6-140.6c15.1-7.7,32.3-8.5,47.5-2.9c8,2.9,15.5,7.6,21.8,13.9c0,0,0,0,0.1,0.1
	C499.1,616.8,503.5,644.7,491.7,667.8L491.7,667.8z"/>
<path fill="#ba64f2" d="M460,515.3c0,0.1,0,0.2-0.1,0.2c-4.2,13.2-16.2,22.2-30,22.5l-202.8,9.3c-11.8,0.5-23.6-1-35-4.5
	c-26.7-8.2-48.7-26.2-61.8-50.9c-0.3-0.6-0.6-1.1-0.9-1.7c-12.4-24.2-14.8-51.8-6.8-77.9c4.7-15.3,12.6-29.1,23.2-40.5
	c7.9-8.5,17.2-15.7,27.7-21.3c15.3-8.1,32.1-12.3,49-12.3c10.3,0,20.6,1.5,30.7,4.6c11.4,3.5,22,8.8,31.5,15.8l162.9,121.1
	c6.8,4.8,11.3,11.8,13,19.6C461.8,504.4,461.6,509.9,460,515.3L460,515.3z"/>
<path fill="#ba64f2" d="M587.4,948.8c10.3,5.5,21.2,9.1,32.3,10.9c15.6,2.5,31.7,1.5,47.3-3.3c10.1-3.1,19.5-7.6,27.9-13.3
	c13.7-9.2,24.8-21.5,32.7-35.6c2.5-4.4,4.7-9.1,6.5-13.8c8-21,9.4-44.7,2.3-67.9c-3.5-11.4-8.8-22-15.8-31.5L599.5,631.4
	c-7.9-11.3-22-16.2-35.2-12.4c-0.1,0-0.3,0.1-0.4,0.1c-5.2,1.6-9.8,4.4-13.5,8.1c-5.7,5.7-9,13.5-9.2,21.9L536,763.9l-4.1,88.1
	c-0.5,11.8,1,23.6,4.5,35C544.6,913.7,562.7,935.6,587.4,948.8L587.4,948.8z"/>
<path fill="#ba64f2" d="M956.4,667c-4.9,16.1-13.4,30.2-24.3,41.6c-26.5,27.7-67.2,39.8-106.3,27.8c-11.4-3.5-22-8.8-31.5-15.8
	L699,649.8l-67.5-50.2c-6.3-4.4-10.6-10.7-12.5-17.7c-1.5-5.5-1.6-11.5,0.1-17.3c0-0.2,0.1-0.4,0.2-0.6
	c4.1-13.3,16.2-22.4,30.1-22.7l47.6-2.2l155.1-7.1c11.8-0.5,23.6,1,35,4.5c26.7,8.2,48.6,26.2,61.8,50.9c0.3,0.5,0.6,1.1,0.8,1.6
	C962,613.3,964.4,640.9,956.4,667L956.4,667z"/>
<path fill="#ba64f2" d="M358.5,284.9l121.1,162.9c8,11.4,22.3,16.3,35.6,12.2c0.3-0.1,0.5-0.2,0.7-0.2c5.7-1.9,10.7-5.3,14.4-9.7
	c4.7-5.5,7.4-12.5,7.6-20.1l9.3-202.8c0.5-11.8-1-23.6-4.5-35c-8.2-26.7-26.2-48.7-50.9-61.8c-10.3-5.5-21.3-9.1-32.5-10.9
	c-15.6-2.5-31.6-1.5-47.2,3.3c-27,8.3-48.3,26.5-61,49.6c-13.2,23.9-17.1,52.9-8.5,81C346.2,264.8,351.6,275.4,358.5,284.9
	L358.5,284.9z"/>
</svg>
